<?xml version="1.0" encoding="iso-8859-1"?>
<!-- Generator: Adobe Illustrator 19.0.0, SVG Export Plug-In . SVG Version: 6.00 Build 0)  -->
<svg version="1.1" id="Capa_1" xmlns="http://www.w3.org/2000/svg" xmlns:xlink="http://www.w3.org/1999/xlink" x="0px" y="0px"
	 viewBox="0 0 512 512" style="enable-background:new 0 0 512 512;" xml:space="preserve">
<g>
	<g>
		<circle cx="314.55" cy="392.81" r="7.722"/>
	</g>
</g>
<g>
	<g>
		<circle cx="314.55" cy="431.49" r="7.722"/>
	</g>
</g>
<g>
	<g>
		<path d="M290.349,75.02l-4.068-24.999c-1.414-8.69-1.061-17.431,1.046-25.98l0.735-2.98c1.258-5.106,0.12-10.408-3.122-14.547
			C281.697,2.374,276.822,0,271.563,0h-1.339c-6.821,0-12.735,4.385-14.743,11l-1.075,3.703l-5.011-1.448
			c-3.978-1.152-8.14,1.144-9.29,5.125c-1.151,3.981,1.144,8.14,5.125,9.29l4.992,1.442l-3.192,10.991l-4.977-1.438
			c-3.98-1.15-8.14,1.144-9.29,5.125c-1.151,3.98,1.144,8.14,5.125,9.29l4.958,1.432l-3.192,10.991l-4.942-1.428
			c-3.979-1.152-8.14,1.144-9.29,5.125c-1.152,3.981,1.143,8.14,5.124,9.29l4.923,1.422l-3.99,13.739
			c-1.381,4.756-0.466,9.753,2.511,13.711c1.026,1.364,2.249,2.512,3.601,3.45l-6.728,199.883
			c-0.127,3.802,1.259,7.402,3.904,10.136c2.644,2.734,6.195,4.24,9.999,4.24h22.355c3.804,0,7.355-1.506,9.999-4.24
			c2.644-2.734,4.031-6.334,3.904-10.138l-6.822-202.702c1.322-1.559,2.361-3.394,3.021-5.438c1.317-4.081,4.397-7.428,6.749-9.517
			C289.064,88.512,291.449,81.776,290.349,75.02z M245.898,310.065l6.613-196.504c0.712-0.003,1.421-0.006,2.128-0.01
			c0.127-0.001,0.251-0.001,0.378-0.002c0.462-0.002,0.92-0.005,1.375-0.007c0.358-0.002,0.708-0.004,1.06-0.006
			c0.16-0.001,0.32-0.002,0.478-0.003c0.49-0.003,0.971-0.006,1.444-0.009l6.614,196.541H245.898z M274.006,81.819
			c-3.747,3.328-8.708,8.827-11.064,16.126c-0.05,0.155-0.143,0.305-0.262,0.412c-0.032,0.019-0.066,0.033-0.097,0.053
			c-0.044,0.027-0.152,0.091-0.228,0.092c-4.542,0.031-10.654,0.065-15.879,0.073c-0.048-0.004-0.094-0.011-0.14-0.017
			c-0.008-0.001-0.015-0.001-0.023-0.002c-0.097-0.02-0.226-0.069-0.333-0.212c-0.171-0.231-0.115-0.426-0.091-0.509l23.976-82.563
			c0.048-0.16,0.192-0.267,0.359-0.267h1.339c0.8,0,1.293,0.415,1.565,0.762c0.273,0.347,0.557,0.925,0.365,1.703l-0.735,2.98
			c-2.594,10.523-3.027,21.282-1.287,31.981l4.068,25C275.809,79.087,275.235,80.727,274.006,81.819z"/>
	</g>
</g>
<g>
	<g>
		<path d="M281.619,345.609h-50.683c-4.144,0-7.502,3.359-7.502,7.502s3.358,7.502,7.502,7.502h50.683
			c4.144,0,7.502-3.359,7.502-7.502S285.763,345.609,281.619,345.609z"/>
	</g>
</g>
<g>
	<g>
		<path d="M281.619,385.313h-50.683c-4.144,0-7.502,3.359-7.502,7.502s3.358,7.502,7.502,7.502h50.683
			c4.144,0,7.502-3.359,7.502-7.502S285.763,385.313,281.619,385.313z"/>
	</g>
</g>
<g>
	<g>
		<path d="M281.619,423.992h-50.683c-4.144,0-7.502,3.359-7.502,7.502s3.358,7.502,7.502,7.502h50.683
			c4.144,0,7.502-3.359,7.502-7.502S285.763,423.992,281.619,423.992z"/>
	</g>
</g>
<g>
	<g>
		<path d="M352.575,376.628c-0.045-0.056-0.092-0.111-0.14-0.165c-5.353-6.161-9.899-11.063-13.909-15.387
			c-10.204-11.004-14.04-15.382-14.482-20.416c0.744-1.87,3.447-6.465,5.652-10.214c10.635-18.08,28.434-48.34,16.414-69.541
			c-2.753-4.854-6.573-6.317-9.293-6.691c-8.394-1.153-15.987,6.384-25.594,15.926c-2.589,2.571-5.265,5.23-7.976,7.725
			c-3.049,2.806-3.245,7.552-0.44,10.601c2.805,3.048,7.551,3.246,10.601,0.44c2.92-2.688,5.7-5.449,8.388-8.119
			c3.681-3.655,8.917-8.856,12.035-10.89c5.81,14.048-8.981,39.194-17.068,52.942c-5.595,9.51-7.86,13.528-7.76,17.487
			c0.287,11.291,7.151,18.692,18.522,30.953c3.914,4.221,8.347,9.002,13.51,14.94c11.821,14.514,13.208,40.128,3.365,62.339
			c-7.489,16.899-27.697,45.631-78.891,48.193c-2.611,0.131-6.983,0.218-9.972,0.244c-2.909-0.025-8.133-0.11-10.797-0.244
			c-36.149-1.809-63.188-17.506-76.137-44.2c-10.729-22.118-9.959-50.222,1.831-66.823c6.718-9.461,12.441-16.089,17.038-21.415
			c12.914-14.961,18.191-22.501,7.873-44.569c-26.368-54.622-21.094-81.8-17.438-83.792c0.002,0,0.091-0.011,0.292,0.026
			c4.518,0.815,7.641,5.48,12.364,13.023c2.968,4.741,6.332,10.115,10.91,14.994c2.835,3.021,7.584,3.173,10.605,0.338
			c3.021-2.835,3.173-7.583,0.338-10.605c-3.578-3.813-6.403-8.325-9.135-12.689c-5.476-8.746-11.139-17.791-22.416-19.827
			c-5.944-1.074-11.522,1.154-15.29,6.111c-11.705,15.402-5.323,54.24,16.218,98.861c6.595,14.106,5.669,15.18-5.679,28.324
			C171.31,360.074,165.33,367,158.2,377.04c-15.009,21.134-16.282,54.879-3.097,82.061c8.947,18.444,32.392,49.81,88.887,52.637
			c3.14,0.157,8.885,0.24,11.483,0.262c0.021,0,0.043,0,0.064,0s0.043,0,0.064,0c3.245-0.027,7.798-0.119,10.658-0.262
			c43.256-2.165,76.737-22.977,91.859-57.1C370.374,426.981,368.147,395.631,352.575,376.628z"/>
	</g>
</g>
</svg>
